# xmcd
#
# Track frame offsets:
# 150
# 10127
# 27580
# 43894
# 56710
# 72238
# 94032
# 104140
# 119818
# 134944
# 147829
# 162620
# 178990
# 192627
# 204745
# 219661
# 229702
# 243732
#
# Disc length: 3438 seconds
#
#
# Revision: 0
# Processed by: cddbd v1.5.2PL0 Copyright (c) Steve Scherf et al.
# Submitted via: FreeRIP 2.945 
#
DISCID=320d6c12
DTITLE=Country and Trucker - Hits
DYEAR=1900
DGENRE=Country
TTITLE0=Tom Astor and Seine Freunde - Adios Amigos
TTITLE1=Anne Karin                           - Hätt ich's geahnt
TTITLE2=Gunter Gabriel                      - Ich bin CB-Funker
TTITLE3=Peter Hinnen                        - Ich wär so gern in Lousiana
TTITLE4=Renate Kern                         - Er nahm ein anderes Mädchen
TTITLE5=Johnny Hill                                  - Ruf Teddybär eins - vier
TTITLE6=Peter Held                                                                         - Gehen wir nochmals den Weg nach Westen
TTITLE7=Roxy Rose                            - Ich bin keine Traumfrau
TTITLE8=Jan Hayston                          - Du machst mir gute Laune
TTITLE9=Holger Stern                          - Ich bin ein einsamer Reiter
TTITLE10=Ralph Paulsen                       - Ein Herz für Cowboys
TTITLE11=Bernd Clüver                          - Jeder tut was er Kann
TTITLE12=John Brack                             - Das Leben ist wie eine Bergstrasse
TTITLE13=Marion Maerz                          - Wer Liebe sucht (stand by your man)
TTITLE14=Vanessa                                  - Die Jahre ziehn so schnell ins Land
TTITLE15=Nashville Music Company       - Von den blauen Bergen kommen wir
TTITLE16=Tennessee                              - Chili Lady
TTITLE17=Monique                                  - Cowboys gibt es überall
EXTD=
EXTT0=
EXTT1=
EXTT2=
EXTT3=
EXTT4=
EXTT5=
EXTT6=
EXTT7=
EXTT8=
EXTT9=
EXTT10=
EXTT11=
EXTT12=
EXTT13=
EXTT14=
EXTT15=
EXTT16=
EXTT17=
PLAYORDER=
